<svg width="631" height="740" viewBox="0 0 631 740" fill="none" xmlns="http://www.w3.org/2000/svg">
<g filter="url(#filter0_i_176_48)">
<ellipse cx="213" cy="377.151" rx="418" ry="447.151" fill="url(#paint0_linear_176_48)"/>
</g>
<path d="M140.702 423.16L134.582 414.932C132.769 415.295 131.001 415.476 129.278 415.476C124.79 415.476 120.665 414.433 116.902 412.348C113.185 410.263 110.216 407.361 107.994 403.644C105.818 399.881 104.73 395.665 104.73 390.996C104.73 386.327 105.818 382.133 107.994 378.416C110.216 374.699 113.185 371.797 116.902 369.712C120.665 367.627 124.79 366.584 129.278 366.584C133.766 366.584 137.869 367.627 141.586 369.712C145.349 371.797 148.296 374.699 150.426 378.416C152.602 382.133 153.69 386.327 153.69 390.996C153.69 395.076 152.852 398.816 151.174 402.216C149.542 405.571 147.253 408.359 144.306 410.58L154.778 423.16H140.702ZM116.63 390.996C116.63 395.212 117.764 398.589 120.03 401.128C122.342 403.621 125.425 404.868 129.278 404.868C133.086 404.868 136.124 403.599 138.39 401.06C140.702 398.521 141.858 395.167 141.858 390.996C141.858 386.78 140.702 383.425 138.39 380.932C136.124 378.393 133.086 377.124 129.278 377.124C125.425 377.124 122.342 378.371 120.03 380.864C117.764 383.357 116.63 386.735 116.63 390.996ZM197.76 377.056V415H186.132V409.832C184.954 411.509 183.344 412.869 181.304 413.912C179.31 414.909 177.088 415.408 174.64 415.408C171.739 415.408 169.178 414.773 166.956 413.504C164.735 412.189 163.012 410.308 161.788 407.86C160.564 405.412 159.952 402.533 159.952 399.224V377.056H171.512V397.66C171.512 400.199 172.17 402.171 173.484 403.576C174.799 404.981 176.567 405.684 178.788 405.684C181.055 405.684 182.846 404.981 184.16 403.576C185.475 402.171 186.132 400.199 186.132 397.66V377.056H197.76ZM241.88 395.416C241.88 396.504 241.812 397.637 241.676 398.816H215.36C215.542 401.173 216.29 402.987 217.604 404.256C218.964 405.48 220.619 406.092 222.568 406.092C225.47 406.092 227.487 404.868 228.62 402.42H240.996C240.362 404.913 239.206 407.157 237.528 409.152C235.896 411.147 233.834 412.711 231.34 413.844C228.847 414.977 226.059 415.544 222.976 415.544C219.259 415.544 215.95 414.751 213.048 413.164C210.147 411.577 207.88 409.311 206.248 406.364C204.616 403.417 203.8 399.972 203.8 396.028C203.8 392.084 204.594 388.639 206.18 385.692C207.812 382.745 210.079 380.479 212.98 378.892C215.882 377.305 219.214 376.512 222.976 376.512C226.648 376.512 229.912 377.283 232.768 378.824C235.624 380.365 237.846 382.564 239.432 385.42C241.064 388.276 241.88 391.608 241.88 395.416ZM229.98 392.356C229.98 390.361 229.3 388.775 227.94 387.596C226.58 386.417 224.88 385.828 222.84 385.828C220.891 385.828 219.236 386.395 217.876 387.528C216.562 388.661 215.746 390.271 215.428 392.356H229.98ZM263.451 415.544C260.141 415.544 257.195 414.977 254.611 413.844C252.027 412.711 249.987 411.169 248.491 409.22C246.995 407.225 246.156 405.004 245.975 402.556H257.467C257.603 403.871 258.215 404.936 259.303 405.752C260.391 406.568 261.728 406.976 263.315 406.976C264.765 406.976 265.876 406.704 266.647 406.16C267.463 405.571 267.871 404.823 267.871 403.916C267.871 402.828 267.304 402.035 266.171 401.536C265.037 400.992 263.201 400.403 260.663 399.768C257.943 399.133 255.676 398.476 253.863 397.796C252.049 397.071 250.485 395.96 249.171 394.464C247.856 392.923 247.199 390.86 247.199 388.276C247.199 386.1 247.788 384.128 248.967 382.36C250.191 380.547 251.959 379.119 254.271 378.076C256.628 377.033 259.416 376.512 262.635 376.512C267.395 376.512 271.135 377.691 273.855 380.048C276.62 382.405 278.207 385.533 278.615 389.432H267.871C267.689 388.117 267.1 387.075 266.103 386.304C265.151 385.533 263.881 385.148 262.295 385.148C260.935 385.148 259.892 385.42 259.167 385.964C258.441 386.463 258.079 387.165 258.079 388.072C258.079 389.16 258.645 389.976 259.779 390.52C260.957 391.064 262.771 391.608 265.219 392.152C268.029 392.877 270.319 393.603 272.087 394.328C273.855 395.008 275.396 396.141 276.711 397.728C278.071 399.269 278.773 401.355 278.819 403.984C278.819 406.205 278.184 408.2 276.915 409.968C275.691 411.691 273.9 413.051 271.543 414.048C269.231 415.045 266.533 415.544 263.451 415.544ZM307.081 405.14V415H301.165C296.949 415 293.662 413.98 291.305 411.94C288.947 409.855 287.769 406.477 287.769 401.808V386.712H283.145V377.056H287.769V367.808H299.397V377.056H307.013V386.712H299.397V401.944C299.397 403.077 299.669 403.893 300.213 404.392C300.757 404.891 301.663 405.14 302.933 405.14H307.081ZM319.406 373.112C317.366 373.112 315.688 372.523 314.374 371.344C313.104 370.12 312.47 368.624 312.47 366.856C312.47 365.043 313.104 363.547 314.374 362.368C315.688 361.144 317.366 360.532 319.406 360.532C321.4 360.532 323.032 361.144 324.302 362.368C325.616 363.547 326.274 365.043 326.274 366.856C326.274 368.624 325.616 370.12 324.302 371.344C323.032 372.523 321.4 373.112 319.406 373.112ZM325.186 377.056V415H313.558V377.056H325.186ZM350.884 415.544C347.167 415.544 343.812 414.751 340.82 413.164C337.874 411.577 335.539 409.311 333.816 406.364C332.139 403.417 331.3 399.972 331.3 396.028C331.3 392.129 332.162 388.707 333.884 385.76C335.607 382.768 337.964 380.479 340.956 378.892C343.948 377.305 347.303 376.512 351.02 376.512C354.738 376.512 358.092 377.305 361.084 378.892C364.076 380.479 366.434 382.768 368.156 385.76C369.879 388.707 370.74 392.129 370.74 396.028C370.74 399.927 369.856 403.372 368.088 406.364C366.366 409.311 363.986 411.577 360.948 413.164C357.956 414.751 354.602 415.544 350.884 415.544ZM350.884 405.48C353.106 405.48 354.987 404.664 356.528 403.032C358.115 401.4 358.908 399.065 358.908 396.028C358.908 392.991 358.138 390.656 356.596 389.024C355.1 387.392 353.242 386.576 351.02 386.576C348.754 386.576 346.872 387.392 345.376 389.024C343.88 390.611 343.132 392.945 343.132 396.028C343.132 399.065 343.858 401.4 345.308 403.032C346.804 404.664 348.663 405.48 350.884 405.48ZM400.029 376.648C404.472 376.648 408.008 378.099 410.637 381C413.312 383.856 414.649 387.8 414.649 392.832V415H403.089V394.396C403.089 391.857 402.432 389.885 401.117 388.48C399.803 387.075 398.035 386.372 395.813 386.372C393.592 386.372 391.824 387.075 390.509 388.48C389.195 389.885 388.537 391.857 388.537 394.396V415H376.909V377.056H388.537V382.088C389.716 380.411 391.303 379.096 393.297 378.144C395.292 377.147 397.536 376.648 400.029 376.648Z" fill="white"/>
<path d="M455.222 367.286C455.222 358.382 462.497 351.143 471.444 351.143H479.556C488.503 351.143 495.778 358.382 495.778 367.286V368.194C495.778 373.692 492.964 378.813 488.326 381.764L477.629 388.599C474.489 390.609 471.905 393.371 470.116 396.632C468.327 399.893 467.389 403.549 467.389 407.265V407.643C467.389 412.107 471.014 415.714 475.5 415.714C479.986 415.714 483.611 412.107 483.611 407.643V407.29C483.611 405.221 484.676 403.304 486.399 402.195L497.096 395.359C506.373 389.406 512 379.191 512 368.194V367.286C512 349.453 497.476 335 479.556 335H471.444C453.524 335 439 349.453 439 367.286C439 371.75 442.625 375.357 447.111 375.357C451.598 375.357 455.222 371.75 455.222 367.286ZM475.5 448C478.189 448 480.768 446.937 482.669 445.045C484.571 443.153 485.639 440.587 485.639 437.911C485.639 435.235 484.571 432.669 482.669 430.777C480.768 428.884 478.189 427.821 475.5 427.821C472.811 427.821 470.232 428.884 468.331 430.777C466.429 432.669 465.361 435.235 465.361 437.911C465.361 440.587 466.429 443.153 468.331 445.045C470.232 446.937 472.811 448 475.5 448Z" fill="white"/>
<defs>
<filter id="filter0_i_176_48" x="-205" y="-70" width="836" height="896.301" filterUnits="userSpaceOnUse" color-interpolation-filters="sRGB">
<feFlood flood-opacity="0" result="BackgroundImageFix"/>
<feBlend mode="normal" in="SourceGraphic" in2="BackgroundImageFix" result="shape"/>
<feColorMatrix in="SourceAlpha" type="matrix" values="0 0 0 0 0 0 0 0 0 0 0 0 0 0 0 0 0 0 127 0" result="hardAlpha"/>
<feOffset dy="2"/>
<feGaussianBlur stdDeviation="2"/>
<feComposite in2="hardAlpha" operator="arithmetic" k2="-1" k3="1"/>
<feColorMatrix type="matrix" values="0 0 0 0 0.105882 0 0 0 0 0.105882 0 0 0 0 0.105882 0 0 0 0.4 0"/>
<feBlend mode="normal" in2="shape" result="effect1_innerShadow_176_48"/>
</filter>
<linearGradient id="paint0_linear_176_48" x1="213" y1="-70" x2="213" y2="824.301" gradientUnits="userSpaceOnUse">
<stop stop-color="#061E9B"/>
<stop offset="1" stop-color="#0C32FE"/>
</linearGradient>
</defs>
</svg>
