<svg width="410" height="113" viewBox="0 0 410 113" fill="none" xmlns="http://www.w3.org/2000/svg">
<path d="M38.7023 88.16L32.5823 79.932C30.769 80.2947 29.001 80.476 27.2783 80.476C22.7903 80.476 18.665 79.4333 14.9023 77.348C11.185 75.2627 8.21566 72.3613 5.99433 68.644C3.81833 64.8813 2.73033 60.6653 2.73033 55.996C2.73033 51.3267 3.81833 47.1333 5.99433 43.416C8.21566 39.6987 11.185 36.7973 14.9023 34.712C18.665 32.6267 22.7903 31.584 27.2783 31.584C31.7663 31.584 35.869 32.6267 39.5863 34.712C43.349 36.7973 46.2957 39.6987 48.4263 43.416C50.6023 47.1333 51.6903 51.3267 51.6903 55.996C51.6903 60.076 50.8517 63.816 49.1743 67.216C47.5423 70.5707 45.253 73.3587 42.3063 75.58L52.7783 88.16H38.7023ZM14.6303 55.996C14.6303 60.212 15.7637 63.5893 18.0303 66.128C20.3423 68.6213 23.425 69.868 27.2783 69.868C31.0863 69.868 34.1237 68.5987 36.3903 66.06C38.7023 63.5213 39.8583 60.1667 39.8583 55.996C39.8583 51.78 38.7023 48.4253 36.3903 45.932C34.1237 43.3933 31.0863 42.124 27.2783 42.124C23.425 42.124 20.3423 43.3707 18.0303 45.864C15.7637 48.3573 14.6303 51.7347 14.6303 55.996ZM95.7602 42.056V80H84.1322V74.832C82.9535 76.5093 81.3442 77.8693 79.3042 78.912C77.3095 79.9093 75.0882 80.408 72.6402 80.408C69.7388 80.408 67.1775 79.7733 64.9562 78.504C62.7348 77.1893 61.0122 75.308 59.7882 72.86C58.5642 70.412 57.9522 67.5333 57.9522 64.224V42.056H69.5122V62.66C69.5122 65.1987 70.1695 67.1707 71.4842 68.576C72.7988 69.9813 74.5668 70.684 76.7882 70.684C79.0548 70.684 80.8455 69.9813 82.1602 68.576C83.4748 67.1707 84.1322 65.1987 84.1322 62.66V42.056H95.7602ZM139.88 60.416C139.88 61.504 139.812 62.6373 139.676 63.816H113.36C113.542 66.1733 114.29 67.9867 115.604 69.256C116.964 70.48 118.619 71.092 120.568 71.092C123.47 71.092 125.487 69.868 126.62 67.42H138.996C138.362 69.9133 137.206 72.1573 135.528 74.152C133.896 76.1467 131.834 77.7107 129.34 78.844C126.847 79.9773 124.059 80.544 120.976 80.544C117.259 80.544 113.95 79.7507 111.048 78.164C108.147 76.5773 105.88 74.3107 104.248 71.364C102.616 68.4173 101.8 64.972 101.8 61.028C101.8 57.084 102.594 53.6387 104.18 50.692C105.812 47.7453 108.079 45.4787 110.98 43.892C113.882 42.3053 117.214 41.512 120.976 41.512C124.648 41.512 127.912 42.2827 130.768 43.824C133.624 45.3653 135.846 47.564 137.432 50.42C139.064 53.276 139.88 56.608 139.88 60.416ZM127.98 57.356C127.98 55.3613 127.3 53.7747 125.94 52.596C124.58 51.4173 122.88 50.828 120.84 50.828C118.891 50.828 117.236 51.3947 115.876 52.528C114.562 53.6613 113.746 55.2707 113.428 57.356H127.98ZM161.451 80.544C158.141 80.544 155.195 79.9773 152.611 78.844C150.027 77.7107 147.987 76.1693 146.491 74.22C144.995 72.2253 144.156 70.004 143.975 67.556H155.467C155.603 68.8707 156.215 69.936 157.303 70.752C158.391 71.568 159.728 71.976 161.315 71.976C162.765 71.976 163.876 71.704 164.647 71.16C165.463 70.5707 165.871 69.8227 165.871 68.916C165.871 67.828 165.304 67.0347 164.171 66.536C163.037 65.992 161.201 65.4027 158.663 64.768C155.943 64.1333 153.676 63.476 151.863 62.796C150.049 62.0707 148.485 60.96 147.171 59.464C145.856 57.9227 145.199 55.86 145.199 53.276C145.199 51.1 145.788 49.128 146.967 47.36C148.191 45.5467 149.959 44.1187 152.271 43.076C154.628 42.0333 157.416 41.512 160.635 41.512C165.395 41.512 169.135 42.6907 171.855 45.048C174.62 47.4053 176.207 50.5333 176.615 54.432H165.871C165.689 53.1173 165.1 52.0747 164.103 51.304C163.151 50.5333 161.881 50.148 160.295 50.148C158.935 50.148 157.892 50.42 157.167 50.964C156.441 51.4627 156.079 52.1653 156.079 53.072C156.079 54.16 156.645 54.976 157.779 55.52C158.957 56.064 160.771 56.608 163.219 57.152C166.029 57.8773 168.319 58.6027 170.087 59.328C171.855 60.008 173.396 61.1413 174.711 62.728C176.071 64.2693 176.773 66.3547 176.819 68.984C176.819 71.2053 176.184 73.2 174.915 74.968C173.691 76.6907 171.9 78.0507 169.543 79.048C167.231 80.0453 164.533 80.544 161.451 80.544ZM205.081 70.14V80H199.165C194.949 80 191.662 78.98 189.305 76.94C186.947 74.8547 185.769 71.4773 185.769 66.808V51.712H181.145V42.056H185.769V32.808H197.397V42.056H205.013V51.712H197.397V66.944C197.397 68.0773 197.669 68.8933 198.213 69.392C198.757 69.8907 199.663 70.14 200.933 70.14H205.081ZM217.406 38.112C215.366 38.112 213.688 37.5227 212.374 36.344C211.104 35.12 210.47 33.624 210.47 31.856C210.47 30.0427 211.104 28.5467 212.374 27.368C213.688 26.144 215.366 25.532 217.406 25.532C219.4 25.532 221.032 26.144 222.302 27.368C223.616 28.5467 224.274 30.0427 224.274 31.856C224.274 33.624 223.616 35.12 222.302 36.344C221.032 37.5227 219.4 38.112 217.406 38.112ZM223.186 42.056V80H211.558V42.056H223.186ZM248.884 80.544C245.167 80.544 241.812 79.7507 238.82 78.164C235.874 76.5773 233.539 74.3107 231.816 71.364C230.139 68.4173 229.3 64.972 229.3 61.028C229.3 57.1293 230.162 53.7067 231.884 50.76C233.607 47.768 235.964 45.4787 238.956 43.892C241.948 42.3053 245.303 41.512 249.02 41.512C252.738 41.512 256.092 42.3053 259.084 43.892C262.076 45.4787 264.434 47.768 266.156 50.76C267.879 53.7067 268.74 57.1293 268.74 61.028C268.74 64.9267 267.856 68.372 266.088 71.364C264.366 74.3107 261.986 76.5773 258.948 78.164C255.956 79.7507 252.602 80.544 248.884 80.544ZM248.884 70.48C251.106 70.48 252.987 69.664 254.528 68.032C256.115 66.4 256.908 64.0653 256.908 61.028C256.908 57.9907 256.138 55.656 254.596 54.024C253.1 52.392 251.242 51.576 249.02 51.576C246.754 51.576 244.872 52.392 243.376 54.024C241.88 55.6107 241.132 57.9453 241.132 61.028C241.132 64.0653 241.858 66.4 243.308 68.032C244.804 69.664 246.663 70.48 248.884 70.48ZM298.029 41.648C302.472 41.648 306.008 43.0987 308.637 46C311.312 48.856 312.649 52.8 312.649 57.832V80H301.089V59.396C301.089 56.8573 300.432 54.8853 299.117 53.48C297.803 52.0747 296.035 51.372 293.813 51.372C291.592 51.372 289.824 52.0747 288.509 53.48C287.195 54.8853 286.537 56.8573 286.537 59.396V80H274.909V42.056H286.537V47.088C287.716 45.4107 289.303 44.096 291.297 43.144C293.292 42.1467 295.536 41.648 298.029 41.648Z" fill="white"/>
<path d="M353.222 32.2857C353.222 23.3819 360.497 16.1429 369.444 16.1429H377.556C386.503 16.1429 393.778 23.3819 393.778 32.2857V33.1938C393.778 38.6924 390.964 43.8127 386.326 46.7638L375.629 53.5993C372.489 55.6088 369.905 58.3707 368.116 61.6319C366.327 64.893 365.389 68.549 365.389 72.2645V72.6429C365.389 77.1074 369.014 80.7143 373.5 80.7143C377.986 80.7143 381.611 77.1074 381.611 72.6429V72.2897C381.611 70.2214 382.676 68.3045 384.399 67.1946L395.096 60.3591C404.373 54.4065 410 44.1911 410 33.1938V32.2857C410 14.4529 395.476 0 377.556 0H369.444C351.524 0 337 14.4529 337 32.2857C337 36.7502 340.625 40.3571 345.111 40.3571C349.598 40.3571 353.222 36.7502 353.222 32.2857ZM373.5 113C376.189 113 378.768 111.937 380.669 110.045C382.571 108.153 383.639 105.587 383.639 102.911C383.639 100.235 382.571 97.6686 380.669 95.7765C378.768 93.8844 376.189 92.8214 373.5 92.8214C370.811 92.8214 368.232 93.8844 366.331 95.7765C364.429 97.6686 363.361 100.235 363.361 102.911C363.361 105.587 364.429 108.153 366.331 110.045C368.232 111.937 370.811 113 373.5 113Z" fill="white"/>
</svg>
