<svg width="703" height="870" viewBox="0 0 703 870" fill="none" xmlns="http://www.w3.org/2000/svg">
<g filter="url(#filter0_i_176_49)">
<ellipse cx="229" cy="442.056" rx="474" ry="507.056" fill="url(#paint0_linear_176_49)"/>
</g>
<path d="M475.538 436.143C475.538 428.106 482.115 421.571 490.204 421.571H497.538C505.627 421.571 512.204 428.106 512.204 436.143V436.963C512.204 441.926 509.66 446.548 505.467 449.212L495.796 455.382C492.956 457.196 490.621 459.689 489.003 462.632C487.386 465.576 486.538 468.876 486.538 472.23V472.571C486.538 476.601 489.815 479.857 493.871 479.857C497.927 479.857 501.204 476.601 501.204 472.571V472.253C501.204 470.386 502.167 468.655 503.725 467.654L513.396 461.483C521.783 456.11 526.871 446.889 526.871 436.963V436.143C526.871 420.046 513.74 407 497.538 407H490.204C474.002 407 460.871 420.046 460.871 436.143C460.871 440.173 464.148 443.429 468.204 443.429C472.26 443.429 475.538 440.173 475.538 436.143ZM493.871 509C496.302 509 498.634 508.04 500.353 506.333C502.072 504.625 503.038 502.308 503.038 499.893C503.038 497.477 502.072 495.161 500.353 493.453C498.634 491.745 496.302 490.786 493.871 490.786C491.44 490.786 489.108 491.745 487.389 493.453C485.67 495.161 484.704 497.477 484.704 499.893C484.704 502.308 485.67 504.625 487.389 506.333C489.108 508.04 491.44 509 493.871 509Z" fill="white"/>
<path d="M160.937 497.088L154.817 488.86C153.003 489.223 151.235 489.404 149.513 489.404C145.025 489.404 140.899 488.362 137.137 486.276C133.419 484.191 130.45 481.29 128.229 477.572C126.053 473.81 124.965 469.594 124.965 464.924C124.965 460.255 126.053 456.062 128.229 452.344C130.45 448.627 133.419 445.726 137.137 443.64C140.899 441.555 145.025 440.512 149.513 440.512C154.001 440.512 158.103 441.555 161.821 443.64C165.583 445.726 168.53 448.627 170.661 452.344C172.837 456.062 173.925 460.255 173.925 464.924C173.925 469.004 173.086 472.744 171.409 476.144C169.777 479.499 167.487 482.287 164.541 484.508L175.013 497.088H160.937ZM136.865 464.924C136.865 469.14 137.998 472.518 140.265 475.056C142.577 477.55 145.659 478.796 149.513 478.796C153.321 478.796 156.358 477.527 158.625 474.988C160.937 472.45 162.093 469.095 162.093 464.924C162.093 460.708 160.937 457.354 158.625 454.86C156.358 452.322 153.321 451.052 149.513 451.052C145.659 451.052 142.577 452.299 140.265 454.792C137.998 457.286 136.865 460.663 136.865 464.924ZM217.995 450.984V488.928H206.367V483.76C205.188 485.438 203.579 486.798 201.539 487.84C199.544 488.838 197.323 489.336 194.875 489.336C191.973 489.336 189.412 488.702 187.191 487.432C184.969 486.118 183.247 484.236 182.023 481.788C180.799 479.34 180.187 476.462 180.187 473.152V450.984H191.747V471.588C191.747 474.127 192.404 476.099 193.719 477.504C195.033 478.91 196.801 479.612 199.023 479.612C201.289 479.612 203.08 478.91 204.395 477.504C205.709 476.099 206.367 474.127 206.367 471.588V450.984H217.995ZM262.115 469.344C262.115 470.432 262.047 471.566 261.911 472.744H235.595C235.776 475.102 236.524 476.915 237.839 478.184C239.199 479.408 240.854 480.02 242.803 480.02C245.704 480.02 247.722 478.796 248.855 476.348H261.231C260.596 478.842 259.44 481.086 257.763 483.08C256.131 485.075 254.068 486.639 251.575 487.772C249.082 488.906 246.294 489.472 243.211 489.472C239.494 489.472 236.184 488.679 233.283 487.092C230.382 485.506 228.115 483.239 226.483 480.292C224.851 477.346 224.035 473.9 224.035 469.956C224.035 466.012 224.828 462.567 226.415 459.62C228.047 456.674 230.314 454.407 233.215 452.82C236.116 451.234 239.448 450.44 243.211 450.44C246.883 450.44 250.147 451.211 253.003 452.752C255.859 454.294 258.08 456.492 259.667 459.348C261.299 462.204 262.115 465.536 262.115 469.344ZM250.215 466.284C250.215 464.29 249.535 462.703 248.175 461.524C246.815 460.346 245.115 459.756 243.075 459.756C241.126 459.756 239.471 460.323 238.111 461.456C236.796 462.59 235.98 464.199 235.663 466.284H250.215ZM283.685 489.472C280.376 489.472 277.429 488.906 274.845 487.772C272.261 486.639 270.221 485.098 268.725 483.148C267.229 481.154 266.391 478.932 266.209 476.484H277.701C277.837 477.799 278.449 478.864 279.537 479.68C280.625 480.496 281.963 480.904 283.549 480.904C285 480.904 286.111 480.632 286.881 480.088C287.697 479.499 288.105 478.751 288.105 477.844C288.105 476.756 287.539 475.963 286.405 475.464C285.272 474.92 283.436 474.331 280.897 473.696C278.177 473.062 275.911 472.404 274.097 471.724C272.284 470.999 270.72 469.888 269.405 468.392C268.091 466.851 267.433 464.788 267.433 462.204C267.433 460.028 268.023 458.056 269.201 456.288C270.425 454.475 272.193 453.047 274.505 452.004C276.863 450.962 279.651 450.44 282.869 450.44C287.629 450.44 291.369 451.619 294.089 453.976C296.855 456.334 298.441 459.462 298.849 463.36H288.105C287.924 462.046 287.335 461.003 286.337 460.232C285.385 459.462 284.116 459.076 282.529 459.076C281.169 459.076 280.127 459.348 279.401 459.892C278.676 460.391 278.313 461.094 278.313 462C278.313 463.088 278.88 463.904 280.013 464.448C281.192 464.992 283.005 465.536 285.453 466.08C288.264 466.806 290.553 467.531 292.321 468.256C294.089 468.936 295.631 470.07 296.945 471.656C298.305 473.198 299.008 475.283 299.053 477.912C299.053 480.134 298.419 482.128 297.149 483.896C295.925 485.619 294.135 486.979 291.777 487.976C289.465 488.974 286.768 489.472 283.685 489.472ZM327.315 479.068V488.928H321.399C317.183 488.928 313.897 487.908 311.539 485.868C309.182 483.783 308.003 480.406 308.003 475.736V460.64H303.379V450.984H308.003V441.736H319.631V450.984H327.247V460.64H319.631V475.872C319.631 477.006 319.903 477.822 320.447 478.32C320.991 478.819 321.898 479.068 323.167 479.068H327.315ZM339.64 447.04C337.6 447.04 335.923 446.451 334.608 445.272C333.339 444.048 332.704 442.552 332.704 440.784C332.704 438.971 333.339 437.475 334.608 436.296C335.923 435.072 337.6 434.46 339.64 434.46C341.635 434.46 343.267 435.072 344.536 436.296C345.851 437.475 346.508 438.971 346.508 440.784C346.508 442.552 345.851 444.048 344.536 445.272C343.267 446.451 341.635 447.04 339.64 447.04ZM345.42 450.984V488.928H333.792V450.984H345.42ZM371.119 489.472C367.402 489.472 364.047 488.679 361.055 487.092C358.108 485.506 355.774 483.239 354.051 480.292C352.374 477.346 351.535 473.9 351.535 469.956C351.535 466.058 352.396 462.635 354.119 459.688C355.842 456.696 358.199 454.407 361.191 452.82C364.183 451.234 367.538 450.44 371.255 450.44C374.972 450.44 378.327 451.234 381.319 452.82C384.311 454.407 386.668 456.696 388.391 459.688C390.114 462.635 390.975 466.058 390.975 469.956C390.975 473.855 390.091 477.3 388.323 480.292C386.6 483.239 384.22 485.506 381.183 487.092C378.191 488.679 374.836 489.472 371.119 489.472ZM371.119 479.408C373.34 479.408 375.222 478.592 376.763 476.96C378.35 475.328 379.143 472.994 379.143 469.956C379.143 466.919 378.372 464.584 376.831 462.952C375.335 461.32 373.476 460.504 371.255 460.504C368.988 460.504 367.107 461.32 365.611 462.952C364.115 464.539 363.367 466.874 363.367 469.956C363.367 472.994 364.092 475.328 365.543 476.96C367.039 478.592 368.898 479.408 371.119 479.408ZM420.264 450.576C424.706 450.576 428.242 452.027 430.872 454.928C433.546 457.784 434.884 461.728 434.884 466.76V488.928H423.324V468.324C423.324 465.786 422.666 463.814 421.352 462.408C420.037 461.003 418.269 460.3 416.048 460.3C413.826 460.3 412.058 461.003 410.744 462.408C409.429 463.814 408.772 465.786 408.772 468.324V488.928H397.144V450.984H408.772V456.016C409.95 454.339 411.537 453.024 413.532 452.072C415.526 451.075 417.77 450.576 420.264 450.576Z" fill="white"/>
<defs>
<filter id="filter0_i_176_49" x="-245" y="-65" width="948" height="1016.11" filterUnits="userSpaceOnUse" color-interpolation-filters="sRGB">
<feFlood flood-opacity="0" result="BackgroundImageFix"/>
<feBlend mode="normal" in="SourceGraphic" in2="BackgroundImageFix" result="shape"/>
<feColorMatrix in="SourceAlpha" type="matrix" values="0 0 0 0 0 0 0 0 0 0 0 0 0 0 0 0 0 0 127 0" result="hardAlpha"/>
<feOffset dy="2"/>
<feGaussianBlur stdDeviation="2"/>
<feComposite in2="hardAlpha" operator="arithmetic" k2="-1" k3="1"/>
<feColorMatrix type="matrix" values="0 0 0 0 0.105882 0 0 0 0 0.105882 0 0 0 0 0.105882 0 0 0 0.4 0"/>
<feBlend mode="normal" in2="shape" result="effect1_innerShadow_176_49"/>
</filter>
<linearGradient id="paint0_linear_176_49" x1="229" y1="-65" x2="229" y2="949.112" gradientUnits="userSpaceOnUse">
<stop stop-color="#061E9B"/>
<stop offset="1" stop-color="#0C32FE"/>
</linearGradient>
</defs>
</svg>
