<svg width="23" height="13" viewBox="0 0 23 13" fill="none" xmlns="http://www.w3.org/2000/svg">
<path d="M21.85 2.29412H1.15C0.845001 2.29412 0.552494 2.17327 0.336827 1.95815C0.12116 1.74304 0 1.45128 0 1.14706C0 0.84284 0.12116 0.551081 0.336827 0.335966C0.552494 0.12085 0.845001 0 1.15 0H21.85C22.155 0 22.4475 0.12085 22.6632 0.335966C22.8788 0.551081 23 0.84284 23 1.14706C23 1.45128 22.8788 1.74304 22.6632 1.95815C22.4475 2.17327 22.155 2.29412 21.85 2.29412ZM18.0167 7.64706H4.98333C4.67833 7.64706 4.38583 7.52621 4.17016 7.31109C3.95449 7.09598 3.83333 6.80422 3.83333 6.5C3.83333 6.19578 3.95449 5.90402 4.17016 5.68891C4.38583 5.47379 4.67833 5.35294 4.98333 5.35294H18.0167C18.3217 5.35294 18.6142 5.47379 18.8298 5.68891C19.0455 5.90402 19.1667 6.19578 19.1667 6.5C19.1667 6.80422 19.0455 7.09598 18.8298 7.31109C18.6142 7.52621 18.3217 7.64706 18.0167 7.64706ZM13.4167 13H9.58333C9.27833 13 8.98583 12.8791 8.77016 12.664C8.55449 12.4489 8.43333 12.1572 8.43333 11.8529C8.43333 11.5487 8.55449 11.257 8.77016 11.0418C8.98583 10.8267 9.27833 10.7059 9.58333 10.7059H13.4167C13.7217 10.7059 14.0142 10.8267 14.2298 11.0418C14.4455 11.257 14.5667 11.5487 14.5667 11.8529C14.5667 12.1572 14.4455 12.4489 14.2298 12.664C14.0142 12.8791 13.7217 13 13.4167 13Z" fill="#1B1B1B" fill-opacity="0.9"/>
</svg>
