<svg width="28" height="28" viewBox="0 0 28 28" fill="none" xmlns="http://www.w3.org/2000/svg">
<path d="M25.6666 14C25.6665 14.2166 25.6061 14.4289 25.4921 14.6131C25.3782 14.7973 25.2152 14.9461 25.0215 15.043L4.02146 25.543C3.82438 25.6413 3.60349 25.6818 3.38434 25.6599C3.16519 25.6379 2.95673 25.5544 2.78307 25.4189C2.60941 25.2834 2.47764 25.1016 2.403 24.8944C2.32836 24.6872 2.3139 24.4631 2.36129 24.248L4.63862 14L2.36129 3.75313C2.31362 3.53796 2.32787 3.31368 2.40239 3.10628C2.47692 2.89887 2.60866 2.71681 2.78238 2.58119C2.95609 2.44556 3.16467 2.36191 3.38396 2.33993C3.60324 2.31794 3.82428 2.35852 4.02146 2.45696L25.0215 12.957C25.2152 13.0538 25.3782 13.2026 25.4921 13.3868C25.6061 13.5711 25.6665 13.7834 25.6666 14ZM6.76896 15.1666L5.17062 22.3603L19.558 15.1666L6.76896 15.1666ZM19.558 12.8333L5.17062 5.63963L6.76896 12.8333L19.558 12.8333Z" fill="#1B1B1B" fill-opacity="0.9"/>
</svg>
