<svg width="118" height="35" viewBox="0 0 118 35" fill="none" xmlns="http://www.w3.org/2000/svg">
<path d="M16 29C23.1797 29 29 23.1797 29 16C29 8.8203 23.1797 3 16 3C8.8203 3 3 8.8203 3 16C3 23.1797 8.8203 29 16 29Z" stroke="#2A2E86" stroke-width="6"/>
<path d="M14.6586 17.3144L15.2207 17.2965C20.4181 17.1315 24.721 21.3 24.721 26.5V26.5" stroke="#2A2E86" stroke-width="4" stroke-linecap="round"/>
<circle cx="27" cy="33" r="2" fill="#000468" fill-opacity="0.8"/>
<path d="M37.7925 26.414C36.6525 26.414 35.7885 26.15 35.2005 25.622C34.7085 25.202 34.3725 24.53 34.1925 23.606C34.0725 22.994 34.0125 22.076 34.0125 20.852C34.0125 19.964 34.0605 18.992 34.1565 17.936C34.1565 17.768 34.1685 17.528 34.1925 17.216C34.2045 16.964 34.2165 16.61 34.2285 16.154C34.2405 15.686 34.2465 15.278 34.2465 14.93C34.2465 14.75 34.2345 14.624 34.2105 14.552C34.1865 14.384 34.1745 14.252 34.1745 14.156C34.1745 13.964 34.3785 13.868 34.7865 13.868H35.8665C36.6345 13.844 37.3725 13.868 38.0805 13.94C38.5725 13.988 38.9505 14.042 39.2145 14.102C39.5385 14.186 39.7545 14.306 39.8625 14.462C39.9585 14.642 40.0065 14.954 40.0065 15.398C40.0065 15.938 40.0005 16.436 39.9885 16.892C39.9765 17.336 39.9645 17.732 39.9525 18.08C39.9405 18.164 39.9345 18.296 39.9345 18.476C39.9345 18.716 39.9225 19.124 39.8985 19.7C39.8745 20.756 39.8625 21.638 39.8625 22.346C39.8625 22.79 39.8805 23.114 39.9165 23.318C39.9525 23.51 40.0485 23.606 40.2045 23.606C40.5285 23.606 40.8825 23.528 41.2665 23.372C41.5065 23.252 41.6745 23.162 41.7705 23.102V15.866C41.7345 15.59 41.7165 15.32 41.7165 15.056C41.6925 14.984 41.6805 14.882 41.6805 14.75V14.588C41.6805 14.372 41.7225 14.222 41.8065 14.138C41.8905 14.066 42.0885 14.03 42.4005 14.03C42.7485 14.03 43.1985 14.012 43.7505 13.976C43.9425 13.976 44.2065 13.964 44.5425 13.94C44.7825 13.94 44.9565 13.922 45.0645 13.886C45.1365 13.886 45.2205 13.898 45.3165 13.922C45.4605 13.922 45.5805 13.928 45.6765 13.94L46.2165 13.958C46.4805 13.97 46.8105 14.018 47.2065 14.102L47.7105 14.246C47.8185 14.282 47.8845 14.324 47.9085 14.372C47.9445 14.42 47.9625 14.48 47.9625 14.552C47.9625 16.328 47.9265 18.11 47.8545 19.898C47.7825 22.25 47.7465 24.026 47.7465 25.226C47.7465 25.706 47.5185 25.946 47.0625 25.946H46.1445C45.9045 25.97 45.4665 25.994 44.8305 26.018C44.4705 26.042 44.1885 26.054 43.9845 26.054L43.1565 26.09C42.8325 26.09 42.5865 26.036 42.4185 25.928C42.2505 25.82 42.1365 25.634 42.0765 25.37C41.4285 25.694 40.7445 25.952 40.0245 26.144C39.3045 26.324 38.5605 26.414 37.7925 26.414ZM50.6762 25.928C50.6522 25.928 50.6342 25.904 50.6222 25.856C50.5382 25.748 50.4782 25.616 50.4422 25.46C50.4062 25.4 50.3762 25.322 50.3522 25.226C50.2442 25.01 50.1662 24.71 50.1182 24.326C50.0702 23.774 50.0462 23.336 50.0462 23.012C50.0342 22.868 50.0282 22.67 50.0282 22.418V21.986C50.0282 21.626 50.0222 21.344 50.0102 21.14C49.9982 20.924 49.9922 20.498 49.9922 19.862C49.9922 18.158 50.0282 16.844 50.1002 15.92C50.1002 15.776 50.3042 15.668 50.7122 15.596H51.2522H51.7022C52.3862 15.596 52.8962 15.608 53.2322 15.632C53.7362 15.668 54.2462 15.686 54.7622 15.686C54.8822 15.686 54.9722 15.68 55.0322 15.668H55.3022L55.3922 15.74C55.7882 15.656 56.1962 15.602 56.6162 15.578C57.0362 15.554 57.5462 15.542 58.1462 15.542C58.1702 15.542 58.2002 15.56 58.2362 15.596H58.8122C58.9082 15.596 58.9802 15.65 59.0282 15.758C59.0882 15.866 59.1362 16.022 59.1722 16.226C59.2202 16.382 59.2562 16.574 59.2802 16.802C59.3282 17.102 59.3702 17.3 59.4062 17.396C59.4062 17.732 59.3462 17.9 59.2262 17.9C59.2142 17.9 59.1962 17.882 59.1722 17.846L59.1002 17.828C59.0402 17.816 58.9742 17.822 58.9022 17.846C58.8302 17.882 58.7522 17.9 58.6682 17.9C58.5962 17.9 58.5362 17.882 58.4882 17.846C58.4642 17.834 58.4102 17.828 58.3262 17.828C58.2182 17.828 58.0922 17.846 57.9482 17.882C57.9002 17.894 57.8042 17.912 57.6602 17.936C57.5282 17.96 57.3722 17.972 57.1922 17.972C56.6762 17.972 56.3042 17.984 56.0762 18.008C55.9442 18.02 55.8182 18.056 55.6982 18.116V18.08C55.6502 18.08 55.6082 18.14 55.5722 18.26C55.4882 18.464 55.4342 18.746 55.4102 19.106C55.3982 19.214 55.3922 19.334 55.3922 19.466C55.3922 19.598 55.4102 19.688 55.4462 19.736C55.4942 19.784 55.5662 19.808 55.6622 19.808C55.7342 19.808 55.7942 19.784 55.8422 19.736C55.8662 19.736 55.8962 19.742 55.9322 19.754C55.9682 19.766 55.9982 19.784 56.0222 19.808H57.5522C57.5642 19.784 57.5822 19.766 57.6062 19.754C57.6302 19.742 57.6542 19.736 57.6782 19.736C57.7982 19.736 57.8882 19.754 57.9482 19.79C58.0202 19.826 58.1642 19.862 58.3802 19.898C58.5002 19.898 58.5842 19.934 58.6322 20.006C58.6922 20.09 58.7222 20.168 58.7222 20.24L59.1002 21.428C59.1362 21.62 58.9562 21.746 58.5602 21.806C58.3322 21.854 57.8942 21.878 57.2462 21.878H56.4722H55.9322C55.7642 21.878 55.6382 21.89 55.5542 21.914C55.4702 21.926 55.4162 21.968 55.3922 22.04C55.3442 22.1 55.3202 22.196 55.3202 22.328V22.4C55.3202 22.46 55.3262 22.502 55.3382 22.526L55.3202 22.922C55.3082 23.006 55.3022 23.132 55.3022 23.3V23.48V23.642V23.75C55.8422 23.75 56.3942 23.732 56.9582 23.696C57.5102 23.66 58.0562 23.642 58.5962 23.642C58.6322 23.642 58.6622 23.672 58.6862 23.732C58.7102 23.78 58.7222 23.84 58.7222 23.912C58.7462 23.984 58.7582 24.062 58.7582 24.146C58.7822 24.326 58.8182 24.494 58.8662 24.65L58.9922 25.172V25.532V25.586V25.73L58.8482 25.856H58.7222H58.6682C58.5362 25.856 58.4522 25.85 58.4162 25.838C58.3802 25.814 58.3382 25.802 58.2902 25.802C58.2662 25.814 58.2302 25.832 58.1822 25.856C58.1342 25.88 58.0922 25.904 58.0562 25.928V25.838L57.8402 25.856H57.5702C57.5222 25.856 57.4862 25.844 57.4622 25.82L57.3182 25.802C56.8742 25.802 56.5622 25.844 56.3822 25.928H50.6762ZM63.4709 26.36L63.0569 26.288C62.6609 26.228 62.3309 26.156 62.0669 26.072C61.9229 26.06 61.7969 26.018 61.6889 25.946C61.5929 25.91 61.5329 25.862 61.5089 25.802L61.1129 23.57V23.48C61.1129 23.396 61.1189 23.336 61.1309 23.3C61.1549 23.252 61.1969 23.222 61.2569 23.21C62.0369 23.51 62.8049 23.66 63.5609 23.66C63.8009 23.66 63.9869 23.666 64.1189 23.678C64.5749 23.678 64.9049 23.618 65.1089 23.498C65.2169 23.426 65.2709 23.324 65.2709 23.192C65.2709 23 65.2109 22.844 65.0909 22.724C64.9709 22.592 64.7969 22.478 64.5689 22.382L63.9929 22.166C63.8249 22.13 63.6329 22.064 63.4169 21.968C63.4169 21.956 63.4109 21.95 63.3989 21.95C63.3869 21.938 63.3749 21.92 63.3629 21.896C63.3149 21.884 63.2129 21.824 63.0569 21.716L62.9489 21.662C62.9729 21.662 62.9849 21.656 62.9849 21.644C62.9849 21.632 62.9669 21.62 62.9309 21.608C62.8949 21.584 62.8229 21.548 62.7149 21.5C62.6189 21.44 62.5349 21.374 62.4629 21.302C62.3549 21.242 62.3009 21.17 62.3009 21.086V20.996C62.0009 20.996 61.7429 20.684 61.5269 20.06C61.3469 19.424 61.2569 18.974 61.2569 18.71C61.2569 17.594 61.7369 16.736 62.6969 16.136C63.4769 15.644 64.5509 15.314 65.9189 15.146C66.8069 15.05 67.9109 15.002 69.2309 15.002C69.3989 15.062 69.5309 15.098 69.6269 15.11C69.8429 15.122 69.9869 15.194 70.0589 15.326C70.0949 15.386 70.1249 15.506 70.1489 15.686C70.1849 15.878 70.2209 16.436 70.2569 17.36C70.2809 17.384 70.2929 17.42 70.2929 17.468C70.2929 17.564 70.1609 17.642 69.8969 17.702C69.6089 17.738 69.4229 17.756 69.3389 17.756L68.9249 17.81C68.4569 17.87 68.1509 17.912 68.0069 17.936C67.5149 18.02 67.1729 18.17 66.9809 18.386C66.8609 18.53 66.8009 18.68 66.8009 18.836C66.8009 18.92 66.8129 18.986 66.8369 19.034C66.8609 19.082 66.9209 19.136 67.0169 19.196C67.1249 19.256 67.4369 19.406 67.9529 19.646C68.5049 19.886 69.0569 20.198 69.6089 20.582C70.0769 20.906 70.4129 21.338 70.6169 21.878C70.7249 22.106 70.7789 22.406 70.7789 22.778C70.7789 23.114 70.7369 23.402 70.6529 23.642C70.3409 24.434 69.7529 25.082 68.8889 25.586C68.4809 25.826 68.0549 26.012 67.6109 26.144C67.1669 26.288 66.7409 26.36 66.3329 26.36L63.6869 26.414L63.4709 26.36ZM77.783 26.054H76.955H76.019H74.831C74.723 25.886 74.651 25.58 74.615 25.136C74.567 24.74 74.543 24.164 74.543 23.408L74.561 21.428C74.573 20.948 74.579 20.186 74.579 19.142L74.525 19.088H72.743C72.479 19.088 72.305 18.788 72.221 18.188C72.173 17.864 72.149 17.39 72.149 16.766V16.532C72.173 16.448 72.185 16.316 72.185 16.136V15.776L72.203 15.632L72.275 15.56L72.599 15.578H72.959C73.487 15.578 73.889 15.572 74.165 15.56H75.335H75.659H76.271H77.045H77.819C77.975 15.572 78.197 15.578 78.485 15.578H78.935C78.983 15.554 79.061 15.542 79.169 15.542C79.253 15.518 79.331 15.506 79.403 15.506C79.631 15.506 79.805 15.518 79.925 15.542C80.165 15.566 80.345 15.578 80.465 15.578L80.933 15.56H81.635C81.995 15.56 82.241 15.566 82.373 15.578L82.625 15.596C82.637 15.608 82.655 15.626 82.679 15.65C82.703 15.662 82.715 15.674 82.715 15.686V18.746C82.715 18.818 82.673 18.896 82.589 18.98C82.517 19.064 82.445 19.118 82.373 19.142C81.977 19.058 81.461 19.016 80.825 19.016H80.141C79.961 19.016 79.841 19.244 79.781 19.7C79.757 19.832 79.745 20.024 79.745 20.276V20.816C79.745 21.056 79.751 21.236 79.763 21.356V21.86C79.763 22.352 79.739 22.808 79.691 23.228C79.667 23.54 79.655 23.768 79.655 23.912C79.631 24.056 79.619 24.254 79.619 24.506C79.619 24.866 79.607 25.166 79.583 25.406C79.571 25.778 79.433 25.976 79.169 26C78.881 26.036 78.713 26.054 78.665 26.054H77.783ZM84.9887 26.234C84.7727 26.234 84.6347 26.018 84.5747 25.586C84.5387 25.406 84.5207 25.244 84.5207 25.1C84.5207 24.908 84.5147 24.788 84.5027 24.74C84.4907 24.392 84.4607 23.84 84.4127 23.084L84.3587 22.4C84.2867 21.344 84.2507 20.564 84.2507 20.06V15.686C84.2507 15.59 84.3587 15.518 84.5747 15.47C84.6947 15.434 84.8627 15.416 85.0787 15.416C85.2227 15.416 85.3787 15.428 85.5467 15.452C85.7147 15.464 85.8407 15.47 85.9247 15.47C86.1047 15.494 86.3867 15.506 86.7707 15.506L86.8427 15.452H87.6347C87.6707 15.488 87.7127 15.506 87.7607 15.506H87.8327C87.8447 15.494 87.8747 15.488 87.9227 15.488C87.9467 15.476 87.9827 15.47 88.0307 15.47C88.0427 15.458 88.0547 15.452 88.0667 15.452C88.0787 15.452 88.0847 15.452 88.0847 15.452C88.1207 15.452 88.1627 15.464 88.2107 15.488C88.2587 15.5 88.2947 15.506 88.3187 15.506H89.6507L89.7047 18.602C89.7047 18.614 89.6927 18.656 89.6687 18.728C89.6567 18.788 89.6447 18.872 89.6327 18.98C89.5967 19.412 89.5787 19.754 89.5787 20.006V23.516L89.5247 24.2C89.4887 24.5 89.4767 24.746 89.4887 24.938C89.4887 25.19 89.4767 25.394 89.4527 25.55C89.4407 25.694 89.4047 25.808 89.3447 25.892C89.2727 25.976 89.1587 26.018 89.0027 26.018L88.9847 26L88.9307 25.982C88.9067 25.982 88.8947 25.988 88.8947 26H88.8047C88.7327 26.024 88.6907 26.042 88.6787 26.054C88.6187 26.054 88.4807 26.036 88.2647 26L88.0127 25.982C87.9527 25.982 87.9167 26.006 87.9047 26.054H86.5547H86.3027L85.8347 26.144L85.4027 26.198L84.9887 26.234ZM97.0151 26.45C96.9191 26.45 96.7871 26.438 96.6191 26.414C96.5351 26.39 96.4031 26.378 96.2231 26.378C95.7671 26.378 95.2031 26.276 94.5311 26.072H94.4051C94.3211 26.072 94.2311 26.048 94.1351 26C94.1111 25.976 94.0811 25.958 94.0451 25.946C94.0091 25.922 93.9671 25.892 93.9191 25.856L93.5411 25.64C93.1811 25.436 92.8631 25.154 92.5871 24.794C92.3111 24.422 92.0891 24.014 91.9211 23.57C91.5971 22.754 91.4351 21.92 91.4351 21.068C91.4351 20.12 91.6271 19.208 92.0111 18.332C92.4191 17.408 92.9651 16.676 93.6491 16.136C94.4051 15.536 95.2451 15.236 96.1691 15.236C96.4571 15.236 96.6791 15.248 96.8351 15.272C96.8351 15.248 96.8531 15.236 96.8891 15.236H96.9431C97.7831 15.236 98.5331 15.266 99.1931 15.326C99.7571 15.41 100.279 15.584 100.759 15.848C101.719 16.484 102.409 17.18 102.829 17.936C103.273 18.776 103.495 19.766 103.495 20.906C103.495 22.046 103.225 23.114 102.685 24.11L102.505 24.398C102.457 24.47 102.427 24.506 102.415 24.506L102.361 24.596L102.235 24.668C101.719 25.436 100.939 25.958 99.8951 26.234C99.1991 26.378 98.2391 26.45 97.0151 26.45ZM97.3211 25.1C97.4291 25.1 97.5131 25.034 97.5731 24.902C97.7171 24.686 97.8371 24.266 97.9331 23.642C97.9451 23.534 97.9751 23.294 98.0231 22.922C98.0711 22.55 98.1011 22.202 98.1131 21.878C98.1611 21.062 98.1851 20.558 98.1851 20.366V19.952V19.808C98.1851 19.376 98.1671 19.004 98.1311 18.692C98.0951 18.2 98.0231 17.81 97.9151 17.522C97.8071 17.378 97.7231 17.306 97.6631 17.306C97.5431 17.306 97.4291 17.396 97.3211 17.576C97.2131 17.756 97.1291 18.086 97.0691 18.566L96.6911 21.446V21.806V22.04C96.7271 22.544 96.7451 22.874 96.7451 23.03L96.7811 23.462L96.8351 24.038C96.8351 24.134 96.8471 24.218 96.8711 24.29L97.0691 24.956C97.0811 25.004 97.1111 25.04 97.1591 25.064C97.2191 25.088 97.2731 25.1 97.3211 25.1ZM106.931 26.054H106.643H106.373H106.229L105.527 25.856L105.491 25.748C105.479 25.748 105.473 25.688 105.473 25.568C105.473 25.412 105.467 25.286 105.455 25.19L105.437 24.506C105.425 24.362 105.419 24.134 105.419 23.822C105.419 23.522 105.413 23.3 105.401 23.156V22.616C105.329 21.86 105.293 21.08 105.293 20.276V20.132V19.862C105.293 19.718 105.299 19.616 105.311 19.556V19.412V19.286C105.299 19.25 105.293 19.19 105.293 19.106V18.908V18.8V18.62V18.332C105.293 18.188 105.299 18.086 105.311 18.026V17.846L105.329 17.756V17.522C105.341 17.402 105.347 17.24 105.347 17.036C105.347 16.88 105.341 16.742 105.329 16.622L105.311 16.208L105.293 16.136C105.257 16.112 105.257 16.094 105.293 16.082C105.341 15.89 105.491 15.752 105.743 15.668C105.863 15.62 106.061 15.596 106.337 15.596C106.541 15.596 107.075 15.578 107.939 15.542C108.371 15.518 108.641 15.506 108.749 15.506C108.929 15.494 109.145 15.488 109.397 15.488C109.517 15.5 109.601 15.524 109.649 15.56C109.697 15.584 109.739 15.632 109.775 15.704C109.823 15.776 109.859 15.83 109.883 15.866L110.243 16.388C110.231 16.376 110.381 16.592 110.693 17.036C110.981 17.504 111.329 18.032 111.737 18.62C111.797 18.716 111.869 18.824 111.953 18.944C112.037 19.064 112.127 19.202 112.223 19.358V18.728C112.235 18.56 112.241 18.32 112.241 18.008C112.241 17.6 112.253 17.144 112.277 16.64C112.277 16.544 112.283 16.46 112.295 16.388C112.307 16.304 112.313 16.238 112.313 16.19C112.313 16.07 112.319 16.01 112.331 16.01C112.379 15.938 112.463 15.86 112.583 15.776C112.727 15.68 112.877 15.638 113.033 15.65H113.933H114.113C114.293 15.65 114.443 15.656 114.563 15.668H115.103C115.223 15.68 115.403 15.686 115.643 15.686H116.039H116.219C116.459 15.686 116.639 15.728 116.759 15.812C116.831 15.86 116.879 15.926 116.903 16.01C116.927 16.082 116.939 16.196 116.939 16.352C116.939 16.508 116.933 16.64 116.921 16.748C116.909 16.868 116.903 17.012 116.903 17.18V17.306C116.915 17.342 116.921 17.396 116.921 17.468V17.936L116.903 20.006V22.04V22.526C116.903 23.822 116.891 24.644 116.867 24.992L116.813 25.586C116.753 25.862 116.669 26.006 116.561 26.018C116.537 26.018 116.501 26.024 116.453 26.036C116.417 26.048 116.375 26.054 116.327 26.054C115.895 26.054 115.577 26.042 115.373 26.018H114.437H113.501H113.267C113.231 26.03 113.183 26.036 113.123 26.036C112.979 26.036 112.829 26.006 112.673 25.946C112.577 25.922 112.475 25.856 112.367 25.748L110.783 23.516C110.723 23.432 110.609 23.294 110.441 23.102L110.207 22.886C110.147 22.826 110.099 22.796 110.063 22.796C110.027 22.796 109.997 22.814 109.973 22.85C109.949 22.874 109.937 22.898 109.937 22.922V23.228C109.925 23.324 109.919 23.474 109.919 23.678V24.2C109.907 24.332 109.901 24.512 109.901 24.74V25.172V25.442C109.889 25.466 109.883 25.502 109.883 25.55C109.883 25.562 109.865 25.658 109.829 25.838C109.805 25.886 109.787 25.916 109.775 25.928C109.763 25.94 109.721 25.946 109.649 25.946C109.625 25.934 109.601 25.928 109.577 25.928C109.565 25.928 109.553 25.928 109.541 25.928C108.593 26.012 107.807 26.054 107.183 26.054H106.931Z" fill="#2A2E86"/>
</svg>
