<svg width="311" height="64" viewBox="0 0 311 64" fill="none" xmlns="http://www.w3.org/2000/svg">
<path d="M36.9368 63.0882L30.8168 54.8602C29.0034 55.2229 27.2354 55.4042 25.5128 55.4042C21.0248 55.4042 16.8994 54.3616 13.1368 52.2762C9.41945 50.1909 6.45011 47.2896 4.22878 43.5722C2.05278 39.8096 0.964779 35.5936 0.964779 30.9242C0.964779 26.2549 2.05278 22.0616 4.22878 18.3442C6.45011 14.6269 9.41945 11.7256 13.1368 9.64022C16.8994 7.55489 21.0248 6.51222 25.5128 6.51222C30.0008 6.51222 34.1034 7.55489 37.8208 9.64022C41.5834 11.7256 44.5301 14.6269 46.6608 18.3442C48.8368 22.0616 49.9248 26.2549 49.9248 30.9242C49.9248 35.0042 49.0861 38.7442 47.4088 42.1442C45.7768 45.4989 43.4874 48.2869 40.5408 50.5082L51.0128 63.0882H36.9368ZM12.8648 30.9242C12.8648 35.1402 13.9981 38.5176 16.2648 41.0562C18.5768 43.5496 21.6594 44.7962 25.5128 44.7962C29.3208 44.7962 32.3581 43.5269 34.6248 40.9882C36.9368 38.4496 38.0928 35.0949 38.0928 30.9242C38.0928 26.7082 36.9368 23.3536 34.6248 20.8602C32.3581 18.3216 29.3208 17.0522 25.5128 17.0522C21.6594 17.0522 18.5768 18.2989 16.2648 20.7922C13.9981 23.2856 12.8648 26.6629 12.8648 30.9242ZM93.9946 16.9842V54.9282H82.3666V49.7602C81.188 51.4376 79.5786 52.7976 77.5386 53.8402C75.544 54.8376 73.3226 55.3362 70.8746 55.3362C67.9733 55.3362 65.412 54.7016 63.1906 53.4322C60.9693 52.1176 59.2466 50.2362 58.0226 47.7882C56.7986 45.3402 56.1866 42.4616 56.1866 39.1522V16.9842H67.7466V37.5882C67.7466 40.1269 68.404 42.0989 69.7186 43.5042C71.0333 44.9096 72.8013 45.6122 75.0226 45.6122C77.2893 45.6122 79.08 44.9096 80.3946 43.5042C81.7093 42.0989 82.3666 40.1269 82.3666 37.5882V16.9842H93.9946ZM138.115 35.3442C138.115 36.4322 138.047 37.5656 137.911 38.7442H111.595C111.776 41.1016 112.524 42.9149 113.839 44.1842C115.199 45.4082 116.854 46.0202 118.803 46.0202C121.704 46.0202 123.722 44.7962 124.855 42.3482H137.231C136.596 44.8416 135.44 47.0856 133.763 49.0802C132.131 51.0749 130.068 52.6389 127.575 53.7722C125.082 54.9056 122.294 55.4722 119.211 55.4722C115.494 55.4722 112.184 54.6789 109.283 53.0922C106.382 51.5056 104.115 49.2389 102.483 46.2922C100.851 43.3456 100.035 39.9002 100.035 35.9562C100.035 32.0122 100.828 28.5669 102.415 25.6202C104.047 22.6736 106.314 20.4069 109.215 18.8202C112.116 17.2336 115.448 16.4402 119.211 16.4402C122.883 16.4402 126.147 17.2109 129.003 18.7522C131.859 20.2936 134.08 22.4922 135.667 25.3482C137.299 28.2042 138.115 31.5362 138.115 35.3442ZM126.215 32.2842C126.215 30.2896 125.535 28.7029 124.175 27.5242C122.815 26.3456 121.115 25.7562 119.075 25.7562C117.126 25.7562 115.471 26.3229 114.111 27.4562C112.796 28.5896 111.98 30.1989 111.663 32.2842H126.215ZM159.685 55.4722C156.376 55.4722 153.429 54.9056 150.845 53.7722C148.261 52.6389 146.221 51.0976 144.725 49.1482C143.229 47.1536 142.391 44.9322 142.209 42.4842H153.701C153.837 43.7989 154.449 44.8642 155.537 45.6802C156.625 46.4962 157.963 46.9042 159.549 46.9042C161 46.9042 162.111 46.6322 162.881 46.0882C163.697 45.4989 164.105 44.7509 164.105 43.8442C164.105 42.7562 163.539 41.9629 162.405 41.4642C161.272 40.9202 159.436 40.3309 156.897 39.6962C154.177 39.0616 151.911 38.4042 150.097 37.7242C148.284 36.9989 146.72 35.8882 145.405 34.3922C144.091 32.8509 143.433 30.7882 143.433 28.2042C143.433 26.0282 144.023 24.0562 145.201 22.2882C146.425 20.4749 148.193 19.0469 150.505 18.0042C152.863 16.9616 155.651 16.4402 158.869 16.4402C163.629 16.4402 167.369 17.6189 170.089 19.9762C172.855 22.3336 174.441 25.4616 174.849 29.3602H164.105C163.924 28.0456 163.335 27.0029 162.337 26.2322C161.385 25.4616 160.116 25.0762 158.529 25.0762C157.169 25.0762 156.127 25.3482 155.401 25.8922C154.676 26.3909 154.313 27.0936 154.313 28.0002C154.313 29.0882 154.88 29.9042 156.013 30.4482C157.192 30.9922 159.005 31.5362 161.453 32.0802C164.264 32.8056 166.553 33.5309 168.321 34.2562C170.089 34.9362 171.631 36.0696 172.945 37.6562C174.305 39.1976 175.008 41.2829 175.053 43.9122C175.053 46.1336 174.419 48.1282 173.149 49.8962C171.925 51.6189 170.135 52.9789 167.777 53.9762C165.465 54.9736 162.768 55.4722 159.685 55.4722ZM203.315 45.0682V54.9282H197.399C193.183 54.9282 189.897 53.9082 187.539 51.8682C185.182 49.7829 184.003 46.4056 184.003 41.7362V26.6402H179.379V16.9842H184.003V7.73622H195.631V16.9842H203.247V26.6402H195.631V41.8722C195.631 43.0056 195.903 43.8216 196.447 44.3202C196.991 44.8189 197.898 45.0682 199.167 45.0682H203.315ZM215.64 13.0402C213.6 13.0402 211.923 12.4509 210.608 11.2722C209.339 10.0482 208.704 8.55222 208.704 6.78422C208.704 4.97089 209.339 3.47489 210.608 2.29622C211.923 1.07222 213.6 0.460219 215.64 0.460219C217.635 0.460219 219.267 1.07222 220.536 2.29622C221.851 3.47489 222.508 4.97089 222.508 6.78422C222.508 8.55222 221.851 10.0482 220.536 11.2722C219.267 12.4509 217.635 13.0402 215.64 13.0402ZM221.42 16.9842V54.9282H209.792V16.9842H221.42ZM247.119 55.4722C243.402 55.4722 240.047 54.6789 237.055 53.0922C234.108 51.5056 231.774 49.2389 230.051 46.2922C228.374 43.3456 227.535 39.9002 227.535 35.9562C227.535 32.0576 228.396 28.6349 230.119 25.6882C231.842 22.6962 234.199 20.4069 237.191 18.8202C240.183 17.2336 243.538 16.4402 247.255 16.4402C250.972 16.4402 254.327 17.2336 257.319 18.8202C260.311 20.4069 262.668 22.6962 264.391 25.6882C266.114 28.6349 266.975 32.0576 266.975 35.9562C266.975 39.8549 266.091 43.3002 264.323 46.2922C262.6 49.2389 260.22 51.5056 257.183 53.0922C254.191 54.6789 250.836 55.4722 247.119 55.4722ZM247.119 45.4082C249.34 45.4082 251.222 44.5922 252.763 42.9602C254.35 41.3282 255.143 38.9936 255.143 35.9562C255.143 32.9189 254.372 30.5842 252.831 28.9522C251.335 27.3202 249.476 26.5042 247.255 26.5042C244.988 26.5042 243.107 27.3202 241.611 28.9522C240.115 30.5389 239.367 32.8736 239.367 35.9562C239.367 38.9936 240.092 41.3282 241.543 42.9602C243.039 44.5922 244.898 45.4082 247.119 45.4082ZM296.264 16.5762C300.706 16.5762 304.242 18.0269 306.872 20.9282C309.546 23.7842 310.884 27.7282 310.884 32.7602V54.9282H299.324V34.3242C299.324 31.7856 298.666 29.8136 297.352 28.4082C296.037 27.0029 294.269 26.3002 292.048 26.3002C289.826 26.3002 288.058 27.0029 286.744 28.4082C285.429 29.8136 284.772 31.7856 284.772 34.3242V54.9282H273.144V16.9842H284.772V22.0162C285.95 20.3389 287.537 19.0242 289.532 18.0722C291.526 17.0749 293.77 16.5762 296.264 16.5762Z" fill="white"/>
</svg>
