<svg width="67" height="102" viewBox="0 0 67 102" fill="none" xmlns="http://www.w3.org/2000/svg">
<path d="M15.5375 29.1429C15.5375 21.1058 22.1146 14.5714 30.2042 14.5714H37.5375C45.6271 14.5714 52.2042 21.1058 52.2042 29.1429V29.9625C52.2042 34.9259 49.6604 39.5478 45.4667 42.2116L35.7958 48.3817C32.9564 50.1955 30.6207 52.6886 29.0031 55.6323C27.3855 58.576 26.5377 61.8761 26.5375 65.2299V65.5714C26.5375 69.6013 29.8146 72.8571 33.8709 72.8571C37.9271 72.8571 41.2042 69.6013 41.2042 65.5714V65.2527C41.2042 63.3857 42.1667 61.6554 43.725 60.6536L53.3959 54.4835C61.7833 49.1103 66.8709 39.8893 66.8709 29.9625V29.1429C66.8709 13.046 53.7396 0 37.5375 0H30.2042C14.0021 0 0.87085 13.046 0.87085 29.1429C0.87085 33.1728 4.14793 36.4286 8.20418 36.4286C12.2604 36.4286 15.5375 33.1728 15.5375 29.1429ZM33.8709 102C36.302 102 38.6336 101.04 40.3527 99.3326C42.0717 97.6247 43.0375 95.3082 43.0375 92.8929C43.0375 90.4775 42.0717 88.1611 40.3527 86.4531C38.6336 84.7452 36.302 83.7857 33.8709 83.7857C31.4397 83.7857 29.1081 84.7452 27.389 86.4531C25.67 88.1611 24.7042 90.4775 24.7042 92.8929C24.7042 95.3082 25.67 97.6247 27.389 99.3326C29.1081 101.04 31.4397 102 33.8709 102Z" fill="white"/>
</svg>
